<svg xmlns="http://www.w3.org/2000/svg" xmlns:xlink="http://www.w3.org/1999/xlink" width="40" zoomAndPan="magnify" viewBox="0 0 30 30.000001" height="40" preserveAspectRatio="xMidYMid meet" version="1.0"><defs><clipPath id="049da37cdf"><path d="M 1.210938 1.363281 L 28 1.363281 L 28 28 L 1.210938 28 Z M 1.210938 1.363281 " clip-rule="nonzero"/></clipPath></defs><g clip-path="url(#049da37cdf)"><path fill="#1868db" d="M 1.214844 8.011719 C 1.214844 4.339844 4.191406 1.363281 7.863281 1.363281 L 21.160156 1.363281 C 24.832031 1.363281 27.808594 4.339844 27.808594 8.011719 L 27.808594 21.308594 C 27.808594 24.980469 24.832031 27.957031 21.160156 27.957031 L 7.863281 27.957031 C 4.191406 27.957031 1.214844 24.980469 1.214844 21.308594 Z M 1.214844 8.011719 " fill-opacity="1" fill-rule="nonzero"/></g><path fill="#101214" d="M 20.984375 14.398438 L 19.890625 21.070312 C 19.820312 21.476562 19.535156 21.714844 19.132812 21.714844 L 9.867188 21.714844 C 9.464844 21.714844 9.179688 21.476562 9.105469 21.070312 L 7.183594 9.171875 C 7.113281 8.765625 7.324219 8.503906 7.707031 8.503906 L 21.292969 8.503906 C 21.671875 8.503906 21.886719 8.765625 21.816406 9.171875 L 21.292969 12.304688 C 21.222656 12.757812 20.960938 12.949219 20.53125 12.949219 L 12.363281 12.949219 C 12.242188 12.949219 12.171875 13.019531 12.195312 13.160156 L 12.835938 17.105469 C 12.859375 17.199219 12.933594 17.269531 13.027344 17.269531 L 15.972656 17.269531 C 16.066406 17.269531 16.136719 17.199219 16.164062 17.105469 L 16.613281 14.253906 C 16.660156 13.898438 16.898438 13.753906 17.230469 13.753906 L 20.4375 13.753906 C 20.914062 13.753906 21.054688 13.992188 20.984375 14.398438 Z M 20.984375 14.398438 " fill-opacity="1" fill-rule="nonzero"/></svg>