<svg xmlns="http://www.w3.org/2000/svg" xmlns:xlink="http://www.w3.org/1999/xlink" width="40" zoomAndPan="magnify" viewBox="0 0 30 30.000001" height="40" preserveAspectRatio="xMidYMid meet" version="1.0"><defs><clipPath id="f53c6b838a"><path d="M 1 1.496094 L 28 1.496094 L 28 29 L 1 29 Z M 1 1.496094 " clip-rule="nonzero"/></clipPath><clipPath id="8cfb021007"><path d="M 7.867188 8.238281 L 21.460938 8.238281 L 21.460938 21.335938 L 7.867188 21.335938 Z M 7.867188 8.238281 " clip-rule="nonzero"/></clipPath></defs><g clip-path="url(#f53c6b838a)"><path fill="#1868db" d="M 1.519531 8.136719 C 1.519531 4.46875 4.46875 1.496094 8.109375 1.496094 L 21.285156 1.496094 C 24.921875 1.496094 27.871094 4.46875 27.871094 8.136719 L 27.871094 21.414062 C 27.871094 25.078125 24.921875 28.050781 21.285156 28.050781 L 8.109375 28.050781 C 4.46875 28.050781 1.519531 25.078125 1.519531 21.414062 Z M 1.519531 8.136719 " fill-opacity="1" fill-rule="nonzero"/></g><g clip-path="url(#8cfb021007)"><path fill="#ffffff" d="M 20.59375 17.28125 C 16.527344 15.300781 15.339844 15.003906 13.625 15.003906 C 11.613281 15.003906 9.902344 15.847656 8.371094 18.214844 L 8.121094 18.601562 C 7.914062 18.921875 7.867188 19.035156 7.867188 19.171875 C 7.867188 19.308594 7.9375 19.421875 8.1875 19.582031 L 10.769531 21.199219 C 10.90625 21.289062 11.019531 21.335938 11.132812 21.335938 C 11.273438 21.335938 11.363281 21.265625 11.5 21.0625 L 11.910156 20.421875 C 12.550781 19.445312 13.121094 19.125 13.851562 19.125 C 14.492188 19.125 15.246094 19.308594 16.183594 19.761719 L 18.878906 21.039062 C 19.152344 21.175781 19.449219 21.105469 19.585938 20.789062 L 20.867188 17.964844 C 21.003906 17.644531 20.910156 17.441406 20.59375 17.28125 Z M 8.734375 12.292969 C 12.800781 14.273438 13.988281 14.570312 15.703125 14.570312 C 17.714844 14.570312 19.425781 13.726562 20.957031 11.359375 L 21.207031 10.972656 C 21.414062 10.652344 21.460938 10.539062 21.460938 10.402344 C 21.460938 10.265625 21.390625 10.152344 21.140625 9.992188 L 18.558594 8.375 C 18.421875 8.285156 18.308594 8.238281 18.195312 8.238281 C 18.054688 8.238281 17.964844 8.308594 17.828125 8.511719 L 17.417969 9.152344 C 16.777344 10.128906 16.207031 10.449219 15.476562 10.449219 C 14.835938 10.449219 14.082031 10.265625 13.144531 9.8125 L 10.449219 8.535156 C 10.175781 8.398438 9.878906 8.46875 9.742188 8.785156 L 8.460938 11.609375 C 8.324219 11.929688 8.417969 12.132812 8.734375 12.292969 Z M 8.734375 12.292969 " fill-opacity="1" fill-rule="nonzero"/></g></svg>