<svg xmlns="http://www.w3.org/2000/svg" viewBox="0 0 24 24" width="36" height="36" fill="none"><path fill="#ffffff" fill-opacity="0.92" d="M12 .5a11.5 11.5 0 0 0-3.64 22.41c.58.11.79-.25.79-.56v-2c-3.22.7-3.9-1.4-3.9-1.4-.53-1.35-1.3-1.7-1.3-1.7-1.06-.73.08-.72.08-.72 1.17.08 1.79 1.2 1.79 1.2 1.04 1.78 2.73 1.27 3.4.97.11-.76.41-1.27.75-1.56-2.57-.29-5.28-1.29-5.28-5.73 0-1.27.46-2.3 1.2-3.11-.12-.29-.52-1.47.11-3.05 0 0 .98-.31 3.2 1.18a11.06 11.06 0 0 1 5.82 0c2.22-1.49 3.2-1.18 3.2-1.18.63 1.58.23 2.76.11 3.05.75.81 1.2 1.84 1.2 3.1 0 4.45-2.72 5.43-5.31 5.72.42.36.8 1.08.8 2.18v3.23c0 .31.21.68.8.56A11.5 11.5 0 0 0 12 .5Z"/></svg>
