<svg xmlns="http://www.w3.org/2000/svg" xmlns:xlink="http://www.w3.org/1999/xlink" width="40" zoomAndPan="magnify" viewBox="0 0 30 30.000001" height="40" preserveAspectRatio="xMidYMid meet" version="1.0"><defs><clipPath id="cd510795af"><path d="M 1 0.726562 L 29 0.726562 L 29 28 L 1 28 Z M 1 0.726562 " clip-rule="nonzero"/></clipPath><clipPath id="cce19731ba"><path d="M 6.402344 6.472656 L 23.15625 6.472656 L 23.15625 23.308594 L 6.402344 23.308594 Z M 6.402344 6.472656 " clip-rule="nonzero"/></clipPath></defs><g clip-path="url(#cd510795af)"><path fill="#1868db" d="M 1.828125 7.363281 C 1.828125 3.699219 4.8125 0.726562 8.488281 0.726562 L 21.808594 0.726562 C 25.484375 0.726562 28.46875 3.699219 28.46875 7.363281 L 28.46875 20.640625 C 28.46875 24.308594 25.484375 27.28125 21.808594 27.28125 L 8.488281 27.28125 C 4.8125 27.28125 1.828125 24.308594 1.828125 20.640625 Z M 1.828125 7.363281 " fill-opacity="1" fill-rule="nonzero"/></g><g clip-path="url(#cce19731ba)"><path fill="#ffffff" d="M 11.789062 17.902344 L 10.289062 17.902344 C 8.023438 17.902344 6.402344 16.519531 6.402344 14.496094 L 14.472656 14.496094 C 14.890625 14.496094 15.160156 14.792969 15.160156 15.210938 L 15.160156 23.304688 C 13.144531 23.304688 11.789062 21.675781 11.789062 19.40625 Z M 15.777344 13.878906 L 14.273438 13.878906 C 12.011719 13.878906 10.386719 12.519531 10.386719 10.496094 L 18.457031 10.496094 C 18.875 10.496094 19.171875 10.769531 19.171875 11.1875 L 19.171875 19.285156 C 17.152344 19.285156 15.777344 17.65625 15.777344 15.382812 Z M 19.785156 9.878906 L 18.285156 9.878906 C 16.023438 9.878906 14.398438 8.496094 14.398438 6.472656 L 22.46875 6.472656 C 22.886719 6.472656 23.15625 6.769531 23.15625 7.164062 L 23.15625 15.261719 C 21.140625 15.261719 19.785156 13.632812 19.785156 11.359375 Z M 19.785156 9.878906 " fill-opacity="1" fill-rule="nonzero"/></g></svg>