<svg xmlns="http://www.w3.org/2000/svg" viewBox="0 0 256 256" width="36" height="36"><path fill="#326CE5" d="M127.4 16.6c4-.1 8 2.7 9.5 6.4l16.6 41.6 45.1 3.8c4.1.3 8 3.5 9 7.5l11.4 45.4c1 3.9-.9 8.8-4.3 11.1l-37.5 25.8 10.9 44.3c1 4-1 8.8-4.6 11l-38.8 24.5c-3.5 2.2-8.9 2-12.1-.6l-35.4-28.7-35.4 28.7c-3.2 2.6-8.6 2.8-12.1.6L36.9 192c-3.6-2.2-5.6-6.9-4.6-11l10.9-44.3L5.7 130.5c-3.4-2.3-5.3-7.1-4.3-11.1l11.4-45.4c1-4 4.9-7.2 9-7.5l45.1-3.8 16.6-41.6c1.5-3.7 5.5-6.5 9.5-6.4h34.4Z"/><path fill="#fff" d="M127.7 70.4c-26.8 0-48.6 21.8-48.6 48.6s21.8 48.6 48.6 48.6 48.6-21.8 48.6-48.6-21.8-48.6-48.6-48.6Zm-2.2 10.6c4.7 0 8.4 3.8 8.4 8.4 0 4.7-3.8 8.4-8.4 8.4-4.7 0-8.4-3.8-8.4-8.4 0-4.7 3.8-8.4 8.4-8.4Zm-26 12.8c4.7 0 8.4 3.8 8.4 8.4 0 4.7-3.8 8.4-8.4 8.4-4.7 0-8.4-3.8-8.4-8.4 0-4.7 3.8-8.4 8.4-8.4Zm52 0c4.7 0 8.4 3.8 8.4 8.4 0 4.7-3.8 8.4-8.4 8.4-4.7 0-8.4-3.8-8.4-8.4 0-4.7 3.8-8.4 8.4-8.4Zm-26 24.4c7.6 0 13.8 6.2 13.8 13.8s-6.2 13.8-13.8 13.8-13.8-6.2-13.8-13.8 6.2-13.8 13.8-13.8Z"/></svg>
